<?xml version="1.0" encoding="utf-8"?>
<!-- Generator: Adobe Illustrator 26.3.1, SVG Export Plug-In . SVG Version: 6.00 Build 0)  -->
<svg version="1.1" id="Layer_1" xmlns="http://www.w3.org/2000/svg" xmlns:xlink="http://www.w3.org/1999/xlink" x="0px" y="0px"
	 viewBox="0 0 16 16" style="enable-background:new 0 0 16 16;" xml:space="preserve">
<style type="text/css">
	.st0{fill-rule:evenodd;clip-rule:evenodd;fill:#8B0E04;}
</style>
<path class="st0" d="M8.8,8.3l5.5-5.5c0.2-0.2,0.2-0.5,0-0.7s-0.5-0.2-0.7,0L8,7.7L2.4,2.1c0,0,0,0,0,0c-0.2-0.2-0.5-0.2-0.7,0
	c0,0,0,0,0,0c-0.2,0.2-0.2,0.5,0,0.7l5.5,5.5l-5.5,5.5c-0.2,0.2-0.2,0.5,0,0.7s0.5,0.2,0.7,0L8,9l5.6,5.6c0,0,0,0,0,0
	c0.2,0.2,0.5,0.2,0.7,0c0,0,0,0,0,0c0.2-0.2,0.2-0.5,0-0.7L8.8,8.3z"/>
</svg>
