<svg width="48" height="48" xmlns="http://www.w3.org/2000/svg">
 <title>down-arrow</title>
 <g>
  <title>Layer 1</title>
  <ellipse stroke-width="3" stroke="#e68f1a" ry="22" rx="22" id="svg_1" cy="24" cx="24.24984" fill="none"/>
  <ellipse stroke="#000" ry="16" rx="16" id="svg_2" cy="24.03125" cx="24.4375" stroke-width="0" fill="#8c0c04"/>
  <path transform="rotate(90 24.62 23.1208)" stroke="#000" id="svg_8" d="m23.92718,26.90457l2.41626,-2.33703l-4.67173,0l-4.67172,0l0,-1.44673l0,-1.44673l4.61813,0c2.53997,0 4.61812,-0.07333 4.61812,-0.16295c0,-0.08962 -1.01115,-1.14129 -2.247,-2.33703l-2.24701,-2.17408l2.07692,0l2.07692,0l3.17192,3.06333l3.17192,3.06333l-3.178,3.05747l-3.178,3.05747l-2.1865,0l-2.1865,0l2.41627,-2.33703l0,0z" stroke-width="0" fill="#ffffff"/>
 </g>

</svg>