<svg width="48" height="48" xmlns="http://www.w3.org/2000/svg">
 <title>right-left-arrow</title>
 <g>
  <title>Layer 1</title>
  <ellipse stroke-width="3" stroke="#e68f1a" ry="22" rx="22" id="svg_1" cy="24" cx="24.24984" fill="none"/>
  <ellipse stroke="#000" ry="16" rx="16" id="svg_2" cy="24.03125" cx="24.4375" stroke-width="0" fill="#8c0c04"/>
  <path stroke="#000" id="svg_8" d="m24.54935,20.78302l1.88117,-1.48988l-3.63714,0l-3.63714,0l0,-0.92231l0,-0.92231l3.59541,0c1.97747,0 3.59541,-0.04675 3.59541,-0.10388c0,-0.05713 -0.78723,-0.72758 -1.74939,-1.48988l-1.74939,-1.386l1.61698,0l1.61697,0l2.46948,1.9529l2.46948,1.9529l-2.47421,1.94916l-2.47421,1.94916l-1.70228,0l-1.70229,0l1.88117,-1.48988l0,0z" stroke-width="0" fill="#ffffff"/>
  <path transform="rotate(180 24.7137 27.902)" stroke="#000" id="svg_9" d="m24.17435,30.31422l1.88117,-1.48988l-3.63715,0l-3.63713,0l0,-0.92231l0,-0.9223l3.59541,0c1.97747,0 3.59541,-0.04675 3.59541,-0.10388c0,-0.05714 -0.78723,-0.72758 -1.74939,-1.48988l-1.7494,-1.386l1.61698,0l1.61697,0l2.46948,1.9529l2.46947,1.9529l-2.47421,1.94916l-2.47421,1.94917l-1.70229,0l-1.70228,0l1.88117,-1.48988l0,0z" stroke-width="0" fill="#ffffff"/>
 </g>

</svg>