<?xml version="1.0" encoding="utf-8"?>
<!-- Generator: Adobe Illustrator 26.3.1, SVG Export Plug-In . SVG Version: 6.00 Build 0)  -->
<svg version="1.1" id="Layer_1" xmlns="http://www.w3.org/2000/svg" xmlns:xlink="http://www.w3.org/1999/xlink" x="0px" y="0px"
	 viewBox="0 0 48 48" style="enable-background:new 0 0 48 48;" xml:space="preserve">
<style type="text/css">
	.st0{fill:#666666;}
</style>
<g>
	<path class="st0" d="M32,25.2l-14.3,7.2c-3,1.5-4.2,5.2-2.7,8.3c1.5,3,5.2,4.2,8.3,2.7l14.3-7.2c3-1.5,4.2-5.2,2.7-8.3
		C38.7,24.9,35,23.7,32,25.2 M36.7,34.6l-7.2,3.6l-3.9-7.7l7.2-3.6c2.1-1.1,4.7-0.2,5.8,1.9C39.7,30.9,38.8,33.5,36.7,34.6"/>
</g>
<path class="st0" d="M19,22.4C18.6,20.6,17.5,19,16,18c-1.6-1-3.5-1.4-5.3-1l0,0c-3.8,0.8-6.3,4.6-5.5,8.4c0.4,1.9,1.5,3.4,3.1,4.5
	c0.7,0.5,1.6,0.8,2.4,1c1,0.2,1.9,0.2,2.9,0C17.4,30,19.8,26.3,19,22.4z M11,18.7L11,18.7c1.4-0.3,2.8,0,4,0.7
	c0.9,0.6,1.6,1.5,2,2.5L6.8,24.1C6.8,21.6,8.5,19.3,11,18.7z M13.2,29.1c-1.4,0.3-2.8,0-4-0.7c-0.9-0.6-1.6-1.5-2-2.5l10.1-2.1
	C17.4,26.2,15.7,28.5,13.2,29.1z"/>
<g>
	<path class="st0" d="M23,19.2c2.3,3.5,6.8,4.7,10.5,2.9L24.7,8.5C21.5,11.1,20.8,15.7,23,19.2z"/>
	<path class="st0" d="M26.3,7.4L35.1,21c3.1-2.6,3.9-7.2,1.6-10.7C34.5,6.8,29.9,5.6,26.3,7.4z"/>
</g>
</svg>
