<?xml version="1.0" encoding="utf-8"?>
<!-- Generator: Adobe Illustrator 26.3.1, SVG Export Plug-In . SVG Version: 6.00 Build 0)  -->
<svg version="1.1" id="Layer_1" xmlns="http://www.w3.org/2000/svg" xmlns:xlink="http://www.w3.org/1999/xlink" x="0px" y="0px"
	 viewBox="0 0 48 48" style="enable-background:new 0 0 48 48;" xml:space="preserve">
<style type="text/css">
	.st0{fill:#E58E1A;}
	.st1{fill:none;stroke:#E58E1A;stroke-width:2.25;stroke-miterlimit:10;}
</style>
<path class="st0" d="M22.6,37.4c0.7,0,1.4-0.6,1.4-1.4c0-0.8-0.6-1.4-1.4-1.4c-0.7,0-1.4,0.6-1.4,1.4C21.2,36.7,21.8,37.4,22.6,37.4
	"/>
<path class="st0" d="M14.9,28.2c4.3,0,7.8-3.6,7.8-8c0-4.4-3.5-8-7.8-8c-4.3,0-7.8,3.5-7.8,8C7.1,24.7,10.6,28.2,14.9,28.2"/>
<path class="st1" d="M44.8,4.7H27.3c-0.8,0-1.4,0.6-1.4,1.3v12c0,0.7,0.6,1.3,1.4,1.3h1.4V24c0,0.5,0.6,0.7,0.9,0.3l4.1-4.9h11.1
	c0.8,0,1.4-0.6,1.4-1.3V6C46.2,5.3,45.6,4.7,44.8,4.7z"/>
<polygon class="st0" points="34.6,8 34.6,10.7 31.9,10.7 31.9,13.7 34.6,13.7 34.6,16.4 37.4,16.4 37.4,13.7 40.1,13.7 40.1,10.7 
	37.4,10.7 37.4,8 "/>
<path class="st0" d="M29,42.6c0-2.1-0.1-4.7-0.1-5.1c-0.3-1.9-0.7-3.6-2-5.1c-1.3-1.5-2.9-2.6-4.8-3.2c-0.1,0-0.3-0.1-0.4-0.1
	c0,0.1,0,0.1,0.1,0.1l-0.2,0c0,0-0.1,0-0.1,0c0.9,1,1.5,2.2,1.7,3.6c0,0.1,0.2,0.3,0.3,0.3c1.5,0.5,2.2,1.9,2,3.5
	c-0.2,1.3-1.4,2.4-2.8,2.5c-1.1,0-2-0.4-2.6-1.4c-0.6-1-0.6-2.1,0-3.2c0.4-0.7,1-1.1,1.8-1.3c-0.2-1.4-0.8-2.5-1.8-3.3
	c-0.3,0.1-0.7,0.3-0.9,0.4c-1,0.4-2.9,1-5.4,0.8c-1.6-0.2-3.3-0.9-4.3-1.4C8.6,30.1,8,31,7.8,32.2c-0.1,0.2-0.2,0.5,0.1,0.8
	c0.2,0.2,0.3,0.5,0.6,0.6c1,0.6,1.6,1.5,2,2.5c0,0.1,0,0.2,0.1,0.4c0,0.2,0,0.4,0.1,0.5c0.4,1,0.5,2.1,0.4,3.2
	c0,0.6-0.1,1.2-0.7,1.6c-0.6,0.4-1.2,0.5-1.9,0.4c-0.4-0.1-0.7-0.4-0.7-0.8c0-0.4,0.3-0.7,0.8-0.7c0.4,0,0.7,0,1.1,0
	c0-0.1,0.1-0.2,0.1-0.3c0.1-1,0-1.9-0.3-2.8c-0.1-0.4-0.4-0.7-0.6-1c-0.2-0.4-0.5-0.8-0.8-1.1c-0.5-0.6-1.1-0.6-1.7-0.1
	C6,35.6,5.8,36,5.6,36.3c-0.2,0.2-0.2,0.6-0.4,0.7c-0.4,0.3-0.4,0.7-0.5,1.1c-0.1,0.4-0.1,0.9-0.2,1.3c0,0.4,0,0.8,0.1,1.2
	c0.3,0,0.5,0,0.7,0c0.2,0,0.4,0,0.6,0c0.5,0.1,0.8,0.4,0.8,0.8c0,0.4-0.3,0.7-0.8,0.8c-0.5,0-1-0.1-1.4-0.2c-0.6-0.2-1-0.6-1.1-1.3
	c-0.3-1.6,0.2-3.1,0.5-4.6c0.1-0.5,0.4-1,0.8-1.3c0.5-0.6,1.2-1.2,1.8-1.8c0.2-0.2,0.2-0.4,0.2-0.6c0.1-0.6,0.3-1.2,0.5-1.8
	c0.2-0.6,0.6-1.1,1-1.5c-1.5,0.4-3.2,1.3-4.3,2.4c-3,3-2.9,8.8-3,11.9c0,0.8,0,1.8,0.3,2c0.2,0.2,0.4,0.4,0.7,0.4h26.3c0,0,0,0,0,0
	l0.1,0c0.2,0,0.3-0.1,0.4-0.2c0.2-0.2,0.4-0.4,0.4-0.7v-2.1C29,42.7,29,42.6,29,42.6z"/>
</svg>
