<?xml version="1.0" encoding="utf-8"?>
<!-- Generator: Adobe Illustrator 26.3.1, SVG Export Plug-In . SVG Version: 6.00 Build 0)  -->
<svg version="1.1" id="Layer_1" xmlns="http://www.w3.org/2000/svg" xmlns:xlink="http://www.w3.org/1999/xlink" x="0px" y="0px"
	 viewBox="0 0 48 48" style="enable-background:new 0 0 48 48;" xml:space="preserve">
<style type="text/css">
	.st0{fill:none;stroke:#E58E1A;stroke-width:2.5;stroke-miterlimit:10;}
	.st1{fill:#E58E1A;}
</style>
<polygon class="st0" points="32.5,4.2 15.5,4.2 3.5,16.2 3.5,33.2 15.5,45.2 32.5,45.2 44.5,33.2 44.5,16.2 "/>
<path class="st1" d="M37.1,23.9c0.8,0.5,1,1.4,0.6,2.2c-1.3,2.8-2.8,5.6-4.1,8.4c-0.4,0.9-1.7,3.2-4.5,4.7c-2.1,1.1-3.9,1.3-4.9,1.3
	h-1.1c-5.2,0-9.5-4.3-9.5-9.5V17.7c0-0.8,0.6-1.5,1.3-1.7c1-0.2,1.8,0.6,1.8,1.6v7.2c0,0.5,0.3,0.8,0.8,0.8l0,0
	c0.5,0,0.8-0.3,0.8-0.8V13c0-0.8,0.6-1.5,1.3-1.7c0.9-0.2,1.8,0.6,1.8,1.6v10.3c0,0.5,0.3,0.8,0.8,0.8l0,0c0.5,0,0.8-0.3,0.8-0.8
	V10.6c0-0.8,0.6-1.5,1.3-1.7c0.9-0.2,1.8,0.6,1.8,1.6v12.6c0,0.5,0.3,0.8,0.8,0.8l0,0c0.5,0,0.8-0.3,0.8-0.8V13
	c0-0.8,0.6-1.5,1.3-1.7c0.9-0.2,1.8,0.6,1.8,1.6v14.7c0,0.8,1,1.1,1.4,0.5l2.4-3.8c0.1-0.1,0.4-0.6,1-0.6
	C36.5,23.5,36.9,23.8,37.1,23.9z"/>
</svg>
